<svg height="456pt" viewBox="0 -4 456.874 456" width="456pt" xmlns="http://www.w3.org/2000/svg"><path d="m353.421875 80.929688.132813 102.042968c64.097656-11.925781 103.320312-32.167968 103.320312-51.015625 0-19.292969-41.222656-39.472656-103.453125-51.027343zm0 0"/><path d="m208.222656 448.496094c3.820313-.011719 7.480469-1.539063 10.171875-4.253906 2.691407-2.710938 4.195313-6.382813 4.171875-10.207032v-52.167968c-10-.070313-20.378906-.332032-30.410156-.777344l1.675781 53.515625c.246094 7.761719 6.625 13.917969 14.390625 13.890625zm0 0"/><path d="m73.851562 350.777344c27.128907 7.039062 59.023438 12.046875 93.476563 14.757812l35.910156-34.074218-62.503906-44.175782zm0 0"/><path d="m147.566406 136.25v52.976562c8 .898438 17 1.667969 26 2.296876v-18.808594c0-3.867188 3.132813-7 7-7 3.867188 0 7 3.132812 7 7v19.675781c13 .707031 27.074219 1.089844 41.523438 1.089844 14.789062 0 29.476562-.398438 42.476562-1.136719v-19.628906c0-3.867188 3.132813-7 7-7 3.867188 0 7 3.132812 7 7v18.738281c9-.640625 18-1.429687 26-2.34375v-52.859375c.011719-.226562.035156-.453125.066406-.679688 1.164063-8.554687-1.519531-17.1875-7.324218-23.578124-5.804688-6.390626-14.136719-9.890626-22.765625-9.554688h-16.125l-30.933594 28.914062c-.050781.046876-.105469-.027343-.160156.019532-.085938.078125-.171875.152344-.257813.222656-.089844.070312-.195312.148438-.292968.21875-.097657.070312-.183594.128906-.277344.191406s-.207032.128906-.308594.191406c-.105469.058594-.191406.105469-.285156.15625-.109375.054688-.21875.109376-.332032.160157-.09375.042969-.191406.082031-.285156.121093-.117187.046876-.234375.089844-.355468.128907-.09375.03125-.1875.0625-.285157.089843-.121093.035157-.242187.066407-.367187.097657-.09375.023437-.191406.042969-.285156.0625-.125.019531-.25.042969-.375.058593-.101563.011719-.195313.023438-.292969.03125-.125.011719-.25.019532-.375.023438-.097657 0-.199219.007812-.300781 0-.121094 0-.242188 0-.367188-.011719-.097656-.007812-.199219-.015625-.304688-.023437-.121093-.015625-.238281-.03125-.359374-.046875-.097657-.019531-.207032-.035157-.308594-.054688-.117188-.023437-.234375-.050781-.347656-.082031-.101563-.027344-.203126-.054688-.300782-.085938-.101562-.027343-.230468-.074218-.347656-.113281-.097656-.035156-.195312-.070312-.289062-.113281-.117188-.046875-.230469-.097656-.34375-.152344-.089844-.042968-.179688-.085937-.269532-.136718-.117187-.058594-.226562-.121094-.339844-.191407-.085937-.050781-.167968-.097656-.25-.15625-.113281-.074219-.222656-.144531-.328124-.226562-.082032-.058594-.160157-.105469-.238282-.171875-.097656-.082032-.203125-.144532-.300781-.238282-.042969-.039062-.089844-.015624-.128906-.058593l-29.757813-28.824219h-17.210937c-8.011719-.054688-15.714844 3.085938-21.40625 8.726562-5.691407 5.636719-8.902344 13.3125-8.925781 21.324219-.015626 1.019531.019531 2.039063.105468 3.054688-.007812.234375-.03125.472656-.0625.707031zm0 0"/><path d="m101.605469 182.359375.136719-100.824219c-29.875 5.738282-54.855469 13.425782-72.613282 22.378906-17.800781 8.976563-27.605468 18.933594-27.605468 28.042969 0 18.527344 37.90625 38.40625 100.082031 50.402344zm0 0"/><path d="m205.75 235.667969c-8.785156-.003907-15.90625 7.117187-15.90625 15.902343 0 8.785157 7.121094 15.90625 15.90625 15.90625s15.90625-7.121093 15.90625-15.90625c-.011719-8.777343-7.125-15.894531-15.90625-15.902343zm0 0"/><path d="m320.074219 202.222656c-.382813.082032-.777344.125-1.167969.136719-12.203125 1.457031-24.8125 2.617187-37.734375 3.457031-1.128906.371094-2.328125.445313-3.488281.214844-15.785156.957031-32 1.449219-48.484375 1.449219-16.242188 0-32.234375-.476563-47.804688-1.40625-.347656.054687-.695312.085937-1.046875.085937-.644531 0-1.28125-.089844-1.902344-.265625-12.699218-.808593-25.105468-1.917969-37.117187-3.320312-.1875.015625-.371094.03125-.5625.03125-.738281-.003907-1.46875-.121094-2.171875-.351563-28.53125-3.445312-54.757812-8.542968-77.292969-15.121094-27.644531-8.074218-47.808593-17.785156-60-28.742187l-1.300781 148.03125c0 13.691406 21.644531 28.457031 58.222656 39.902344l77.042969-73.148438c2.421875-2.296875 6.132813-2.566406 8.859375-.636719l69.472656 49.097657 52.523438-49.835938c2.503906-2.378906 6.367187-2.574219 9.101562-.460937l103.820313 80.300781c4.460937-1.125 8.796875-2.304687 13-3.535156 39.65625-11.628907 63.328125-27.234375 63.328125-41.738281l1.289062-147.5625c-12.242187 10.789062-32.257812 20.359374-59.558594 28.332031-22.464843 6.554687-48.597656 11.640625-77.027343 15.085937zm-114.324219 79.253906c-16.515625 0-29.90625-13.386718-29.90625-29.90625 0-16.515624 13.390625-29.90625 29.90625-29.90625s29.90625 13.390626 29.90625 29.90625c-.019531 16.511719-13.398438 29.886719-29.90625 29.90625zm0 0"/><path d="m219.046875 335.761719-.027344.027343-32.550781 30.882813c.203125.042969.40625.09375.605469.152344 13.519531.699219 27.347656 1.0625 41.371093 1.0625 48.371094 0 94.371094-4.277344 132.921876-12.222657l-89.972657-69.582031zm0 0"/><path d="m236.566406 381.835938v52.199218c.070313 7.898438 6.414063 14.304688 14.3125 14.445313 7.894532.140625 14.46875-6.03125 14.820313-13.921875l1.480469-53.597656c-10.023438.476562-19.613282.777343-30.613282.875zm0 0"/><path d="m228.566406 72.496094c15.96875-.007813 28.925782-12.914063 29-28.882813v-14.351562c-.078125-15.957031-13.042968-28.84375-29-28.824219h-.121094c-15.929687-.011719-28.855468 12.890625-28.878906 28.824219v14.351562c.074219 15.96875 13.035156 28.875 29 28.882813zm0 0"/></svg>